<svg width="970" height="121" viewBox="0 0 970 121" fill="none" xmlns="http://www.w3.org/2000/svg">
<rect x="416.5" y="4.5" width="550" height="112" rx="6.5" stroke="#024D91" stroke-width="7"/>
<path d="M894.917 84.0416L939.083 36.9583M939.083 36.9583H894.917M939.083 36.9583V84.0416" stroke="#024D91" stroke-width="4" stroke-linecap="round" stroke-linejoin="round"/>
<g clip-path="url(#clip0_0_1)">
<path d="M27.7959 49.7164L29.9634 36.9451H80.726L78.5586 49.7164H60.9912L53.4624 95.3276H37.8344L45.3632 49.7164H27.7959ZM86.93 96.1258C82.2529 96.1258 78.3744 95.2326 75.2944 93.4461C72.2144 91.6408 70.0471 89.056 68.7923 85.6921C67.5375 82.3094 67.3093 78.2614 68.1079 73.5482C68.8683 69.025 70.4368 65.0721 72.8134 61.6893C75.2089 58.3064 78.2223 55.6743 81.8537 53.7929C85.504 51.9114 89.5917 50.9707 94.1165 50.9707C97.4247 50.9707 100.324 51.4838 102.815 52.5099C105.324 53.5363 107.368 55.0281 108.946 56.9857C110.524 58.9431 111.589 61.3092 112.14 64.0839C112.711 66.8395 112.711 69.9562 112.14 73.4342L111.57 77.0831H72.4426L73.8115 68.4169H98.4513C98.6415 67.1626 98.5179 66.0603 98.0805 65.1101C97.6623 64.1409 96.9873 63.3902 96.0558 62.858C95.1433 62.307 94.0405 62.0313 92.7476 62.0313C91.4548 62.0313 90.238 62.307 89.0973 62.858C87.9756 63.4092 87.0155 64.1789 86.2169 65.1671C85.4374 66.1553 84.9146 67.3147 84.6484 68.6451L82.9373 77.7672C82.7091 79.1736 82.7948 80.4279 83.194 81.5302C83.5932 82.6325 84.2872 83.4971 85.2758 84.1243C86.2644 84.7514 87.5383 85.065 89.0973 85.065C90.162 85.065 91.1697 84.9225 92.1202 84.6375C93.0899 84.3333 93.9453 83.8963 94.6868 83.3262C95.4474 82.737 96.0558 82.0244 96.512 81.1882H110.885C109.859 84.2288 108.233 86.8705 106.009 89.1131C103.803 91.3365 101.085 93.066 97.8525 94.3014C94.6393 95.5176 90.9986 96.1258 86.93 96.1258ZM143.519 51.5408L141.579 62.9436H112.719L114.658 51.5408H143.519ZM121.959 41.0502H137.701L131.028 81.245C130.933 81.8533 130.951 82.3664 131.085 82.7845C131.218 83.1835 131.484 83.4877 131.883 83.6968C132.301 83.8868 132.853 83.9818 133.537 83.9818C133.993 83.9818 134.554 83.9247 135.22 83.8107C135.885 83.6777 136.389 83.5827 136.731 83.5257L137.188 94.5864C136.389 94.8145 135.315 95.071 133.965 95.356C132.634 95.6602 131.085 95.8598 129.317 95.9547C125.628 96.1258 122.624 95.7362 120.305 94.7859C118.004 93.8358 116.407 92.3534 115.514 90.3388C114.639 88.3053 114.487 85.7682 115.057 82.7275L121.959 41.0502ZM149.915 96.0118C147.139 96.0118 144.753 95.5557 142.757 94.6434C140.78 93.7122 139.335 92.3059 138.422 90.4244C137.528 88.5239 137.329 86.1293 137.823 83.2406C138.222 80.846 138.973 78.803 140.076 77.1117C141.179 75.4202 142.548 74.0327 144.183 72.9495C145.818 71.8663 147.652 71.0396 149.687 70.4695C151.74 69.8803 153.908 69.5002 156.189 69.3291C158.661 69.1391 160.666 68.9016 162.206 68.6165C163.746 68.3315 164.897 67.9418 165.657 67.4476C166.418 66.9536 166.874 66.2885 167.026 65.4523V65.3382C167.197 64.1979 166.893 63.3236 166.113 62.7155C165.353 62.1074 164.288 61.8032 162.919 61.8032C161.436 61.8032 160.153 62.1263 159.069 62.7725C158.005 63.4188 157.273 64.4259 156.873 65.7943H142.386C142.995 63.1336 144.24 60.682 146.122 58.4395C148.023 56.1779 150.542 54.3725 153.679 53.023C156.835 51.6548 160.6 50.9707 164.973 50.9707C168.091 50.9707 170.828 51.3413 173.185 52.0823C175.544 52.8046 177.492 53.8213 179.033 55.1326C180.592 56.4249 181.685 57.9453 182.312 59.6938C182.958 61.4232 183.11 63.3047 182.769 65.3382L177.749 95.3276H163.033L164.06 89.1701H163.718C162.577 90.8045 161.294 92.1253 159.868 93.1325C158.461 94.1398 156.921 94.8715 155.248 95.3276C153.594 95.7837 151.816 96.0118 149.915 96.0118ZM156.759 86.0913C157.938 86.0913 159.098 85.8442 160.239 85.3501C161.379 84.8559 162.358 84.1433 163.176 83.2121C163.994 82.2809 164.516 81.15 164.745 79.8198L165.315 76.1709C164.897 76.3418 164.431 76.5034 163.917 76.6554C163.423 76.7886 162.9 76.9215 162.349 77.0546C161.817 77.1876 161.246 77.3112 160.638 77.4252C160.048 77.5391 159.44 77.6532 158.813 77.7672C157.558 77.9572 156.503 78.2708 155.647 78.708C154.792 79.1261 154.126 79.6487 153.651 80.2759C153.176 80.884 152.881 81.5681 152.767 82.3284C152.596 83.5257 152.871 84.4569 153.594 85.122C154.335 85.7682 155.39 86.0913 156.759 86.0913ZM196.309 84.9511L199.503 66.2503H201.556L214.674 51.5408H232.355L210.796 74.4604H206.347L196.309 84.9511ZM180.451 95.3276L190.149 36.9451H205.891L196.195 95.3276H180.451ZM207.488 95.3276L200.301 77.9954L212.508 66.8205L225.511 95.3276H207.488ZM243.408 96.1258C238.73 96.1258 234.852 95.2326 231.771 93.4461C228.691 91.6408 226.525 89.056 225.27 85.6921C224.015 82.3094 223.787 78.2614 224.586 73.5482C225.345 69.025 226.914 65.0721 229.29 61.6893C231.686 58.3064 234.699 55.6743 238.332 53.7929C241.982 51.9114 246.07 50.9707 250.594 50.9707C253.903 50.9707 256.802 51.4838 259.292 52.5099C261.801 53.5363 263.846 55.0281 265.424 56.9857C267.001 58.9431 268.067 61.3092 268.618 64.0839C269.188 66.8395 269.188 69.9562 268.618 73.4342L268.047 77.0831H228.921L230.289 68.4169H254.928C255.119 67.1626 254.995 66.0603 254.559 65.1101C254.14 64.1409 253.465 63.3902 252.533 62.858C251.621 62.307 250.518 62.0313 249.225 62.0313C247.932 62.0313 246.715 62.307 245.574 62.858C244.453 63.4092 243.493 64.1789 242.695 65.1671C241.915 66.1553 241.392 67.3147 241.126 68.6451L239.416 77.7672C239.186 79.1736 239.272 80.4279 239.672 81.5302C240.072 82.6325 240.764 83.4971 241.753 84.1243C242.742 84.7514 244.017 85.065 245.574 85.065C246.64 85.065 247.647 84.9225 248.598 84.6375C249.568 84.3333 250.423 83.8963 251.164 83.3262C251.925 82.737 252.533 82.0244 252.989 81.1882H267.363C266.336 84.2288 264.711 86.8705 262.486 89.1131C260.281 91.3365 257.562 93.066 254.33 94.3014C251.117 95.5176 247.477 96.1258 243.408 96.1258ZM286.536 70.6975L282.429 95.3276H266.687L273.988 51.5408H288.93L287.562 59.8649H288.019C289.407 57.0711 291.432 54.8951 294.094 53.3366C296.774 51.7594 299.73 50.9707 302.963 50.9707C306.061 50.9707 308.638 51.6737 310.69 53.0801C312.743 54.4864 314.199 56.4249 315.054 58.8956C315.909 61.3662 316.061 64.198 315.511 67.3908L310.833 95.3276H295.091L299.198 70.6975C299.559 68.531 299.293 66.83 298.4 65.5947C297.525 64.3595 296.079 63.7417 294.065 63.7417C292.79 63.7417 291.621 64.0269 290.557 64.597C289.511 65.148 288.636 65.9463 287.933 66.9915C287.249 68.0179 286.782 69.2532 286.536 70.6975ZM347.095 51.5408L345.156 62.9436H316.295L318.234 51.5408H347.095ZM325.536 41.0502H341.278L334.604 81.245C334.51 81.8533 334.528 82.3664 334.661 82.7845C334.794 83.1835 335.061 83.4877 335.46 83.6968C335.879 83.8868 336.429 83.9818 337.113 83.9818C337.57 83.9818 338.131 83.9247 338.796 83.8107C339.462 83.6777 339.966 83.5827 340.307 83.5257L340.764 94.5864C339.966 94.8145 338.892 95.071 337.542 95.356C336.212 95.6602 334.661 95.8598 332.894 95.9547C329.205 96.1258 326.202 95.7362 323.881 94.7859C321.581 93.8358 319.984 92.3534 319.091 90.3388C318.216 88.3053 318.064 85.7682 318.634 82.7275L325.536 41.0502Z" fill="#024D91"/>
<path d="M22.5863 25.9224H64.4132L1.67285 1.67242L15.0575 65.2241L22.5863 25.9224Z" fill="#024D91" stroke="#024D91"/>
</g>
<path d="M380 9V121" stroke="#024D91" stroke-width="8"/>
<path d="M442.5 97V27.1818H492.818V42.4545H461.455V54.4545H490.227V69.7273H461.455V81.7273H492.682V97H442.5ZM562.628 27.1818V97H546.81L521.582 60.3182H521.173V97H502.219V27.1818H518.31L543.128 63.7273H543.673V27.1818H562.628ZM616.935 50.2273C616.639 49.0227 616.173 47.9659 615.537 47.0568C614.901 46.125 614.105 45.3409 613.151 44.7045C612.219 44.0455 611.128 43.5568 609.878 43.2386C608.651 42.8977 607.298 42.7273 605.821 42.7273C602.639 42.7273 599.923 43.4886 597.673 45.0114C595.446 46.5341 593.741 48.7273 592.56 51.5909C591.401 54.4545 590.821 57.9091 590.821 61.9545C590.821 66.0455 591.378 69.5455 592.491 72.4545C593.605 75.3636 595.264 77.5909 597.469 79.1364C599.673 80.6818 602.412 81.4545 605.685 81.4545C608.571 81.4545 610.969 81.0341 612.878 80.1932C614.81 79.3523 616.253 78.1591 617.207 76.6136C618.162 75.0682 618.639 73.25 618.639 71.1591L621.912 71.5H605.957V58H636.912V67.6818C636.912 74.0455 635.56 79.4886 632.855 84.0114C630.173 88.5114 626.469 91.9659 621.741 94.375C617.037 96.7614 611.639 97.9545 605.548 97.9545C598.753 97.9545 592.787 96.5114 587.651 93.625C582.514 90.7386 578.503 86.625 575.616 81.2841C572.753 75.9432 571.321 69.5909 571.321 62.2273C571.321 56.4545 572.196 51.3409 573.946 46.8864C575.719 42.4318 578.173 38.6705 581.31 35.6023C584.446 32.5114 588.071 30.1818 592.185 28.6136C596.298 27.0227 600.707 26.2273 605.412 26.2273C609.548 26.2273 613.389 26.8182 616.935 28C620.503 29.1591 623.651 30.8182 626.378 32.9773C629.128 35.1136 631.344 37.6477 633.026 40.5795C634.707 43.5114 635.73 46.7273 636.094 50.2273H616.935ZM664.705 27.1818V97H645.75V27.1818H664.705ZM734.097 27.1818V97H718.278L693.051 60.3182H692.642V97H673.688V27.1818H689.778L714.597 63.7273H715.142V27.1818H734.097ZM743.062 97V27.1818H793.381V42.4545H762.017V54.4545H790.79V69.7273H762.017V81.7273H793.244V97H743.062ZM830.872 97.9545C825.509 97.9545 820.747 97.0114 816.588 95.125C812.452 93.2159 809.19 90.5909 806.804 87.25C804.44 83.9091 803.236 80.0682 803.19 75.7273H821.599C821.668 78.1364 822.599 80.0568 824.395 81.4886C826.213 82.9205 828.372 83.6364 830.872 83.6364C832.804 83.6364 834.509 83.2273 835.986 82.4091C837.463 81.5682 838.622 80.3864 839.463 78.8636C840.304 77.3409 840.713 75.5682 840.69 73.5455C840.713 71.5 840.304 69.7273 839.463 68.2273C838.622 66.7045 837.463 65.5341 835.986 64.7159C834.509 63.875 832.804 63.4545 830.872 63.4545C828.872 63.4545 827.02 63.9432 825.315 64.9205C823.634 65.875 822.395 67.2045 821.599 68.9091L804.963 65.6364L807.69 27.1818H854.599V42.3182H823.236L821.872 57.7273H822.281C823.372 55.6136 825.259 53.8636 827.94 52.4773C830.622 51.0682 833.736 50.3636 837.281 50.3636C841.44 50.3636 845.145 51.3295 848.395 53.2614C851.668 55.1932 854.247 57.8636 856.134 61.2727C858.043 64.6591 858.986 68.5682 858.963 73C858.986 77.8636 857.827 82.1818 855.486 85.9545C853.168 89.7045 849.906 92.6477 845.702 94.7841C841.497 96.8977 836.554 97.9545 830.872 97.9545Z" fill="#024D91"/>
<defs>
<clipPath id="clip0_0_1">
<rect width="348" height="97" fill="white"/>
</clipPath>
</defs>
</svg>
